<svg height="472pt" viewBox="-3 0 471 472" width="472pt" xmlns="http://www.w3.org/2000/svg"><path d="m300.5 240h124v-240h-384v240h124c11.046875 0 20 8.953125 20 20s-8.953125 20-20 20c11.046875 0 20 8.953125 20 20s-8.953125 20-20 20c11.046875 0 20 8.953125 20 20s-8.953125 20-20 20c11.046875 0 20 8.953125 20 20s-8.953125 20-20 20h-68v40h272v-40h-68c-11.046875 0-20-8.953125-20-20s8.953125-20 20-20c-11.046875 0-20-8.953125-20-20s8.953125-20 20-20c-11.046875 0-20-8.953125-20-20s8.953125-20 20-20c-11.046875 0-20-8.953125-20-20s8.953125-20 20-20zm-68 24-40-96h80zm0 0" fill="#f2e9d7"/><path d="m131.738281 111.886719c-7.722656 2.753906-14.441406 9.5625-14.992187 17.738281-.554688 8.179688 6.847656 16.597656 14.949218 15.351562 5.402344-.828124 9.566407-5.347656 11.945313-10.265624 3.695313-7.636719 3.910156-16.789063.8125-24.683594-4.335937-.066406-8.636719.40625-12.714844 1.859375zm0 0" fill="#f2e9d7"/><path d="m232.5 264 40-96h-80zm0 0" fill="#d85b55"/><path d="m432.5 240h-132c-11.046875 0-20 8.953125-20 20s8.953125 20 20 20c-11.046875 0-20 8.953125-20 20s8.953125 20 20 20c-11.046875 0-20 8.953125-20 20s8.953125 20 20 20c-11.046875 0-20 8.953125-20 20s8.953125 20 20 20h68v72h96v-200c0-17.671875-14.328125-32-32-32zm0 0" fill="#ffaf1c"/><path d="m184.5 300c0-11.046875-8.953125-20-20-20 11.046875 0 20-8.953125 20-20s-8.953125-20-20-20h-132c-17.671875 0-32 14.328125-32 32v200h96v-72h68c11.046875 0 20-8.953125 20-20s-8.953125-20-20-20c11.046875 0 20-8.953125 20-20s-8.953125-20-20-20c11.046875 0 20-8.953125 20-20zm0 0" fill="#ffaf1c"/><g fill="#3f4f4f"><path d="m280.5 144h-16c0-35.289062 28.710938-64 64-64v16c-26.46875 0-48 21.53125-48 48zm0 0"/><path d="m130.117188 153.097656c-4.921876 0-9.8125-1.960937-13.757813-5.578125-5.21875-4.792969-8.054687-11.683593-7.601563-18.4375.726563-10.722656 8.882813-20.660156 20.289063-24.730469.578125-.207031 1.164063-.398437 1.75-.574218-3.015625-2.90625-6.820313-5.453125-11.242187-7.492188-8.140626-3.742187-17.539063-5.558594-26.632813-7.3125l3.03125-15.710937c10.03125 1.9375 20.398437 3.941406 30.289063 8.488281 10.484374 4.828125 18.695312 12.039062 23.484374 20.539062 2.875.28125 5.515626.722657 7.796876 1.15625 26.40625 5.046876 47.140624 18.992188 56.867187 38.269532l-14.28125 7.210937c-7.46875-14.789062-24.046875-25.628906-45.5-29.746093.351563 6.515624-.914063 13.117187-3.765625 19.019531-3.96875 8.195312-10.507812 13.546875-17.9375 14.683593-.929688.144532-1.859375.214844-2.789062.214844zm8.359374-34.710937c-1.4375.238281-2.789062.585937-4.0625 1.035156-4.5625 1.628906-9.359374 5.84375-9.6875 10.746094-.132812 1.859375.859376 4.097656 2.460938 5.566406.523438.476563 1.96875 1.546875 3.289062 1.335937 2.054688-.316406 4.398438-2.609374 5.960938-5.84375 1.890625-3.90625 2.578125-8.464843 2.039062-12.839843zm0 0"/><path d="m211.234375 104.289062c-10.929687-21.421874-28.5625-39.558593-49.671875-51.074218l7.671875-14.046875c23.898437 13.042969 43.875 33.589843 56.25 57.847656zm0 0"/><path d="m264.585938 64.949219-14.703126-6.320313c5.195313-12.074218 13.484376-22.636718 23.984376-30.550781l9.625 12.773437c-8.273438 6.242188-14.8125 14.574219-18.90625 24.097657zm0 0"/><path d="m240.5 80h16v16h-16zm0 0"/><path d="m232.5 120h16v16h-16zm0 0"/><path d="m128.5 32h16v16h-16zm0 0"/></g></svg>