<?xml version="1.0" encoding="iso-8859-1"?>
<!-- Generator: Adobe Illustrator 19.0.0, SVG Export Plug-In . SVG Version: 6.00 Build 0)  -->
<svg version="1.1" id="Layer_1" xmlns="http://www.w3.org/2000/svg" xmlns:xlink="http://www.w3.org/1999/xlink" x="0px" y="0px"
	 viewBox="0 0 496 496" style="enable-background:new 0 0 496 496;" xml:space="preserve">
<path style="fill:#C4BA9D;" d="M496,393.6c0,8-6.4,14.4-14.4,14.4H14.4c-8,0-14.4-6.4-14.4-14.4V110.4c0-8,6.4-14.4,14.4-14.4h466.4
	c8,0,14.4,6.4,14.4,14.4v283.2H496z"/>
<path style="fill:#FFF8EB;" d="M496,385.6c0,8-6.4,14.4-14.4,14.4H14.4c-8,0-14.4-6.4-14.4-14.4V102.4C0,94.4,6.4,88,14.4,88h466.4
	c8,0,14.4,6.4,14.4,14.4v283.2H496z"/>
<path style="fill:#F4EED7;" d="M0,102.4C0,94.4,6.4,88,14.4,88h466.4c8,0,14.4,6.4,14.4,14.4v282.4c0,8-6.4,14.4-14.4,14.4"/>
<rect x="384" y="128" style="fill:#FFB40D;" width="72" height="72"/>
<g>
	<path style="fill:#CEC5AA;" d="M448,308c0,2.4-1.6,4-4,4H260c-2.4,0-4-1.6-4-4l0,0c0-2.4,1.6-4,4-4h184
		C446.4,304,448,305.6,448,308L448,308z"/>
	<path style="fill:#CEC5AA;" d="M448,340c0,2.4-1.6,4-4,4H260c-2.4,0-4-1.6-4-4l0,0c0-2.4,1.6-4,4-4h184
		C446.4,336,448,337.6,448,340L448,340z"/>
	<path style="fill:#CEC5AA;" d="M448,372c0,2.4-1.6,4-4,4H260c-2.4,0-4-1.6-4-4l0,0c0-2.4,1.6-4,4-4h184
		C446.4,368,448,369.6,448,372L448,372z"/>
</g>
<path style="fill:#D81665;" d="M135.2,272c11.2,3.2,20,12,20.8,23.2c0,0.8,0.8,1.6,2.4,1.6c0.8,0.8,2.4,0,3.2-0.8
	c6.4-8.8,17.6-12,29.6-8.8c14.4,4,23.2,17.6,20,30.4c-1.6,4.8-4,8.8-8,12l0,0l0,0l-64.8,44L104,302.4l0,0l0,0
	c-1.6-4.8-2.4-9.6-0.8-14.4C106.4,275.2,120.8,268,135.2,272z"/>
<path style="fill:#B20B5F;" d="M158.4,296.8c0.8,0.8,2.4,0,3.2-0.8c6.4-8.8,17.6-12,29.6-8.8c14.4,4,23.2,17.6,20,30.4
	c-1.6,4.8-4,8.8-8,12l0,0l0,0l-64.8,44"/>
<path style="fill:#D81665;" d="M167.2,203.2c6.4,3.2,11.2,9.6,10.4,16.8c0,0.8,0.8,1.6,0.8,1.6c0.8,0.8,1.6,0.8,1.6,0
	c4.8-4.8,12.8-5.6,19.2-2.4c8.8,4,12.8,13.6,9.6,20.8c-1.6,2.4-3.2,4.8-6.4,6.4l0,0l0,0l-45.6,20.8l-12.8-48l0,0l0,0
	c-0.8-3.2,0-6.4,0.8-8.8C148.8,202.4,159.2,199.2,167.2,203.2z"/>
<path style="fill:#B20B5F;" d="M179.2,220.8c0.8,0.8,1.6,0.8,1.6,0c4.8-4.8,12.8-5.6,19.2-2.4c8.8,4,12.8,13.6,9.6,20.8
	c-1.6,2.4-3.2,4.8-6.4,6.4l0,0l0,0l-45.6,20.8"/>
<path style="fill:#D81665;" d="M45.6,184c9.6-4.8,20.8-4,28,2.4c0.8,0.8,1.6,0.8,2.4,0c0.8,0,1.6-0.8,1.6-2.4
	c-0.8-9.6,4-19.2,13.6-24c12-6.4,26.4-2.4,32,8c2.4,4,2.4,8,1.6,12.8l0,0l0,0l-16,69.6L44,224l0,0l0,0c-4-1.6-7.2-4.8-9.6-8.8
	C28,204,33.6,190.4,45.6,184z"/>
<g>
	<path style="fill:#B20B5F;" d="M76,186.4c0.8,0,1.6-0.8,1.6-2.4c-0.8-9.6,4-19.2,13.6-24c12-6.4,26.4-2.4,32,8
		c2.4,4,2.4,8,1.6,12.8l0,0l0,0l-16,69.6"/>
	<circle style="fill:#B20B5F;" cx="95.2" cy="359.2" r="5.6"/>
	<circle style="fill:#B20B5F;" cx="152.8" cy="177.6" r="8"/>
	<circle style="fill:#B20B5F;" cx="127.2" cy="129.6" r="8.8"/>
	<path style="fill:#B20B5F;" d="M85.6,300c0,13.6-11.2,24-24,24c-13.6,0-24-11.2-24-24c0-13.6,11.2-24,24-24
		C75.2,276,85.6,286.4,85.6,300z"/>
</g>
<path style="fill:#CEC5AA;" d="M80,120.8c0,4-3.2,7.2-7.2,7.2H31.2c-4,0-7.2-3.2-7.2-7.2V120c0-4.8,3.2-8,7.2-8H72
	c4,0,7.2,3.2,7.2,7.2v1.6H80z"/>
<circle style="opacity:0.6;fill:#3EDDDD;enable-background:new    ;" cx="380.8" cy="197.6" r="55.2"/>
<rect x="256" y="264" style="fill:#CEC5AA;" width="48" height="16"/>
<g>
</g>
<g>
</g>
<g>
</g>
<g>
</g>
<g>
</g>
<g>
</g>
<g>
</g>
<g>
</g>
<g>
</g>
<g>
</g>
<g>
</g>
<g>
</g>
<g>
</g>
<g>
</g>
<g>
</g>
</svg>
